<?xml version="1.0" standalone="no"?>
<!DOCTYPE svg PUBLIC "-//W3C//DTD SVG 20010904//EN"
 "http://www.w3.org/TR/2001/REC-SVG-20010904/DTD/svg10.dtd">
<svg version="1.0" xmlns="http://www.w3.org/2000/svg"
 width="500.000000pt" height="500.000000pt" viewBox="0 0 500.000000 500.000000"
 preserveAspectRatio="xMidYMid meet">
<metadata>
Created by potrace 1.14, written by Peter Selinger 2001-2017
</metadata>
<g transform="translate(0.000000,500.000000) scale(0.100000,-0.100000)"
fill="#000000" stroke="none">
<path d="M2617 4393 c-4 -3 -7 -181 -7 -395 l0 -388 -90 0 -90 0 -2 383 -3
382 -635 0 -635 0 -3 -382 -2 -383 -298 -2 -297 -3 0 -1605 0 -1605 1945 0
1945 0 0 1605 0 1605 -277 3 -278 2 -2 393 -3 392 -631 3 c-347 1 -634 -1
-637 -5z m584 -1498 c8 -64 3 -75 -32 -75 -16 0 -29 -3 -29 -7 -1 -29 -22
-154 -31 -180 -10 -30 -14 -33 -53 -33 -24 0 -76 3 -117 6 l-74 6 9 152 c5 83
10 153 12 155 7 8 194 29 249 28 l60 -2 6 -50z m-971 -67 c0 -51 3 -171 7
-266 l6 -173 22 21 c19 18 34 20 177 20 155 0 157 0 189 -27 50 -43 59 -76 59
-228 l0 -135 -35 0 c-30 0 -35 -3 -35 -22 0 -34 -32 -623 -34 -625 -3 -4 -184
-33 -206 -33 l-25 0 0 407 0 408 -50 2 c-33 2 -64 -4 -90 -16 l-40 -19 33 -1
33 -1 -7 -347 c-4 -192 -7 -349 -8 -349 0 -1 -67 -5 -147 -9 l-146 -7 -6 209
c-4 114 -10 438 -14 719 l-6 510 119 26 c65 14 138 26 162 27 l42 1 0 -92z
m-485 -153 c12 -55 24 -114 28 -131 l6 -31 -72 -7 c-72 -6 -362 -62 -378 -72
-23 -14 -7 -34 26 -34 l35 0 0 -67 0 -68 178 -90 c159 -81 179 -94 199 -130
33 -58 30 -75 -11 -75 l-34 0 -7 -77 c-23 -285 -36 -326 -117 -372 -90 -52
-268 -101 -453 -126 l-51 -6 -17 128 c-10 70 -17 133 -17 140 0 7 24 14 58 18
118 13 209 27 270 42 l62 15 0 92 0 91 -148 59 c-185 74 -197 83 -217 149 -25
84 -41 293 -28 375 13 87 33 114 103 146 129 57 434 136 515 133 l49 -2 21
-100z m1945 -111 l0 -144 23 5 c88 20 117 25 154 25 l41 0 6 -65 c3 -36 9 -94
12 -128 l5 -64 -153 -12 c-84 -7 -154 -14 -155 -14 -1 -1 -5 -113 -9 -248 l-7
-247 39 -5 c41 -5 273 -73 282 -82 3 -3 -11 -5 -30 -5 l-35 0 -24 -116 -24
-115 -34 6 c-71 13 -209 58 -291 93 -72 31 -88 43 -101 72 -15 31 -18 105 -23
591 l-7 556 128 24 c70 13 145 22 166 20 l37 -3 0 -144z m-500 -264 l0 -150
-35 0 -35 0 0 -72 c0 -101 -20 -651 -24 -655 -2 -2 -53 -6 -113 -10 l-110 -6
-7 379 c-3 208 -7 435 -9 504 l-2 125 110 16 c61 10 136 17 168 18 l57 1 0
-150z"/>
</g>
</svg>
